<mxfile host="Electron" modified="2024-09-03T13:08:20.740Z" agent="Mozilla/5.0 (X11; Linux x86_64) AppleWebKit/537.36 (KHTML, like Gecko) draw.io/24.6.4 Chrome/124.0.6367.207 Electron/30.0.6 Safari/537.36" etag="9VidqMNzwr2cpFZ9Fz9k" version="24.6.4" type="device" pages="3">
  <diagram name="clause-2-scenario" id="ZkkbawUHQz090-D37wvh">
    <mxGraphModel dx="1434" dy="854" grid="1" gridSize="10" guides="1" tooltips="1" connect="1" arrows="1" fold="1" page="1" pageScale="1" pageWidth="1169" pageHeight="827" math="0" shadow="0">
      <root>
        <mxCell id="0" />
        <mxCell id="1" parent="0" />
        <mxCell id="jvQCmLnBRhZeScLjmYUT-4" value="fluent-obj-held-by-robot: IsHeldPredicate,&lt;br&gt;Fluent" style="rounded=1;whiteSpace=wrap;html=1;fillColor=#C55A11;fontColor=#FFFFFF;labelBackgroundColor=none;" parent="1" vertex="1">
          <mxGeometry x="440" y="470" width="140" height="60" as="geometry" />
        </mxCell>
        <mxCell id="jvQCmLnBRhZeScLjmYUT-6" value="holds" style="edgeStyle=orthogonalEdgeStyle;shape=connector;rounded=1;orthogonalLoop=1;jettySize=auto;html=1;labelBackgroundColor=none;strokeColor=default;align=center;verticalAlign=middle;fontFamily=Helvetica;fontSize=11;fontColor=default;endArrow=classic;" parent="1" source="jvQCmLnBRhZeScLjmYUT-9" target="jvQCmLnBRhZeScLjmYUT-4" edge="1">
          <mxGeometry y="10" relative="1" as="geometry">
            <mxPoint as="offset" />
            <mxPoint x="440" y="500" as="targetPoint" />
          </mxGeometry>
        </mxCell>
        <mxCell id="jvQCmLnBRhZeScLjmYUT-7" value="holds-at" style="edgeStyle=orthogonalEdgeStyle;shape=connector;rounded=1;orthogonalLoop=1;jettySize=auto;html=1;labelBackgroundColor=none;strokeColor=default;align=center;verticalAlign=middle;fontFamily=Helvetica;fontSize=11;fontColor=default;endArrow=classic;" parent="1" source="jvQCmLnBRhZeScLjmYUT-9" target="jvQCmLnBRhZeScLjmYUT-11" edge="1">
          <mxGeometry relative="1" as="geometry" />
        </mxCell>
        <mxCell id="jvQCmLnBRhZeScLjmYUT-8" value="clause-of" style="edgeStyle=orthogonalEdgeStyle;shape=connector;rounded=1;orthogonalLoop=1;jettySize=auto;html=1;labelBackgroundColor=none;strokeColor=default;align=center;verticalAlign=middle;fontFamily=Helvetica;fontSize=11;fontColor=default;endArrow=classic;" parent="1" source="jvQCmLnBRhZeScLjmYUT-9" target="jvQCmLnBRhZeScLjmYUT-15" edge="1">
          <mxGeometry relative="1" as="geometry" />
        </mxCell>
        <mxCell id="jvQCmLnBRhZeScLjmYUT-9" value="clause-obj-held-retrieve: FluentClause" style="rounded=1;whiteSpace=wrap;html=1;labelBackgroundColor=none;fillColor=#C55A11;fontColor=#FFFFFF;" parent="1" vertex="1">
          <mxGeometry x="240" y="480" width="140" height="40" as="geometry" />
        </mxCell>
        <mxCell id="9DVTHavd1RBfUQRVlFWA-4" value="ref-event" style="edgeStyle=orthogonalEdgeStyle;shape=connector;rounded=1;orthogonalLoop=1;jettySize=auto;html=1;strokeColor=default;align=center;verticalAlign=middle;fontFamily=Helvetica;fontSize=11;fontColor=default;labelBackgroundColor=none;endArrow=classic;" edge="1" parent="1" source="jvQCmLnBRhZeScLjmYUT-11" target="9DVTHavd1RBfUQRVlFWA-1">
          <mxGeometry relative="1" as="geometry" />
        </mxCell>
        <mxCell id="jvQCmLnBRhZeScLjmYUT-11" value="after-retrieval: TimeConstraint, AfterEventConstraint" style="rounded=1;whiteSpace=wrap;html=1;fillColor=#2E75B6;fontColor=#FFFFFF;labelBackgroundColor=none;" parent="1" vertex="1">
          <mxGeometry x="240" y="560" width="140" height="60" as="geometry" />
        </mxCell>
        <mxCell id="jvQCmLnBRhZeScLjmYUT-12" value="then" style="edgeStyle=orthogonalEdgeStyle;shape=connector;rounded=1;orthogonalLoop=1;jettySize=auto;html=1;labelBackgroundColor=none;strokeColor=default;align=center;verticalAlign=middle;fontFamily=Helvetica;fontSize=11;fontColor=default;endArrow=classic;" parent="1" source="jvQCmLnBRhZeScLjmYUT-14" target="jvQCmLnBRhZeScLjmYUT-15" edge="1">
          <mxGeometry x="0.6667" y="-10" relative="1" as="geometry">
            <Array as="points">
              <mxPoint x="420" y="340" />
              <mxPoint x="420" y="420" />
            </Array>
            <mxPoint as="offset" />
          </mxGeometry>
        </mxCell>
        <mxCell id="jvQCmLnBRhZeScLjmYUT-13" value="when" style="edgeStyle=orthogonalEdgeStyle;shape=connector;rounded=1;orthogonalLoop=1;jettySize=auto;html=1;labelBackgroundColor=none;strokeColor=default;align=center;verticalAlign=middle;fontFamily=Helvetica;fontSize=11;fontColor=default;endArrow=classic;" parent="1" source="jvQCmLnBRhZeScLjmYUT-14" target="jvQCmLnBRhZeScLjmYUT-25" edge="1">
          <mxGeometry x="0.5385" y="-10" relative="1" as="geometry">
            <Array as="points">
              <mxPoint x="420" y="340" />
              <mxPoint x="420" y="370" />
            </Array>
            <mxPoint as="offset" />
          </mxGeometry>
        </mxCell>
        <mxCell id="jvQCmLnBRhZeScLjmYUT-14" value="scenario-pick: Scenario" style="rounded=1;whiteSpace=wrap;html=1;labelBackgroundColor=none;fillColor=#B85450;fontColor=#FFFFFF;" parent="1" vertex="1">
          <mxGeometry x="460" y="320" width="120" height="40" as="geometry" />
        </mxCell>
        <mxCell id="jvQCmLnBRhZeScLjmYUT-15" value="pick-then: ThenClause" style="rounded=1;whiteSpace=wrap;html=1;labelBackgroundColor=none;fillColor=#B85450;fontColor=#FFFFFF;" parent="1" vertex="1">
          <mxGeometry x="260" y="400" width="100" height="40" as="geometry" />
        </mxCell>
        <mxCell id="jvQCmLnBRhZeScLjmYUT-16" value="holds" style="edgeStyle=orthogonalEdgeStyle;shape=connector;rounded=1;orthogonalLoop=1;jettySize=auto;html=1;labelBackgroundColor=none;strokeColor=default;align=center;verticalAlign=middle;fontFamily=Helvetica;fontSize=11;fontColor=default;endArrow=classic;" parent="1" source="jvQCmLnBRhZeScLjmYUT-17" target="jvQCmLnBRhZeScLjmYUT-4" edge="1">
          <mxGeometry y="-10" relative="1" as="geometry">
            <mxPoint as="offset" />
            <mxPoint x="580" y="500" as="targetPoint" />
          </mxGeometry>
        </mxCell>
        <mxCell id="jvQCmLnBRhZeScLjmYUT-17" value="clause-obj-held-evac: FluentClause" style="rounded=1;whiteSpace=wrap;html=1;labelBackgroundColor=none;fillColor=#C55A11;fontColor=#FFFFFF;" parent="1" vertex="1">
          <mxGeometry x="640" y="480" width="140" height="40" as="geometry" />
        </mxCell>
        <mxCell id="9DVTHavd1RBfUQRVlFWA-5" value="ref-event" style="edgeStyle=orthogonalEdgeStyle;shape=connector;rounded=1;orthogonalLoop=1;jettySize=auto;html=1;strokeColor=default;align=center;verticalAlign=middle;fontFamily=Helvetica;fontSize=11;fontColor=default;labelBackgroundColor=none;endArrow=classic;" edge="1" parent="1" source="jvQCmLnBRhZeScLjmYUT-19" target="9DVTHavd1RBfUQRVlFWA-2">
          <mxGeometry relative="1" as="geometry" />
        </mxCell>
        <mxCell id="jvQCmLnBRhZeScLjmYUT-19" value="before-evac: TimeConstraint, BeforeEventConstraint" style="rounded=1;whiteSpace=wrap;html=1;fillColor=#2E75B6;fontColor=#FFFFFF;labelBackgroundColor=none;" parent="1" vertex="1">
          <mxGeometry x="640" y="560" width="140" height="60" as="geometry" />
        </mxCell>
        <mxCell id="jvQCmLnBRhZeScLjmYUT-20" value="holds-at" style="edgeStyle=orthogonalEdgeStyle;shape=connector;rounded=1;orthogonalLoop=1;jettySize=auto;html=1;labelBackgroundColor=none;strokeColor=default;align=center;verticalAlign=middle;fontFamily=Helvetica;fontSize=11;fontColor=default;endArrow=classic;" parent="1" source="jvQCmLnBRhZeScLjmYUT-17" target="jvQCmLnBRhZeScLjmYUT-19" edge="1">
          <mxGeometry relative="1" as="geometry">
            <mxPoint x="320" y="530" as="sourcePoint" />
            <mxPoint x="320" y="570" as="targetPoint" />
          </mxGeometry>
        </mxCell>
        <mxCell id="jvQCmLnBRhZeScLjmYUT-21" value="then" style="edgeStyle=orthogonalEdgeStyle;shape=connector;rounded=1;orthogonalLoop=1;jettySize=auto;html=1;labelBackgroundColor=none;strokeColor=default;align=center;verticalAlign=middle;fontFamily=Helvetica;fontSize=11;fontColor=default;endArrow=classic;" parent="1" source="jvQCmLnBRhZeScLjmYUT-22" target="jvQCmLnBRhZeScLjmYUT-23" edge="1">
          <mxGeometry relative="1" as="geometry">
            <mxPoint as="offset" />
          </mxGeometry>
        </mxCell>
        <mxCell id="jvQCmLnBRhZeScLjmYUT-22" value="scenario-move-obj: Scenario" style="rounded=1;whiteSpace=wrap;html=1;labelBackgroundColor=none;fillColor=#B85450;fontColor=#FFFFFF;" parent="1" vertex="1">
          <mxGeometry x="650" y="320" width="120" height="40" as="geometry" />
        </mxCell>
        <mxCell id="jvQCmLnBRhZeScLjmYUT-23" value="move-obj-given: GivenClause" style="rounded=1;whiteSpace=wrap;html=1;labelBackgroundColor=none;fillColor=#B85450;fontColor=#FFFFFF;" parent="1" vertex="1">
          <mxGeometry x="650" y="400" width="120" height="40" as="geometry" />
        </mxCell>
        <mxCell id="jvQCmLnBRhZeScLjmYUT-24" value="pick-given: GivenClause" style="rounded=1;whiteSpace=wrap;html=1;labelBackgroundColor=none;fillColor=#B85450;fontColor=#FFFFFF;" parent="1" vertex="1">
          <mxGeometry x="260" y="300" width="100" height="40" as="geometry" />
        </mxCell>
        <mxCell id="jvQCmLnBRhZeScLjmYUT-25" value="pick-when: WhenClause" style="rounded=1;whiteSpace=wrap;html=1;labelBackgroundColor=none;fillColor=#B85450;fontColor=#FFFFFF;" parent="1" vertex="1">
          <mxGeometry x="260" y="350" width="100" height="40" as="geometry" />
        </mxCell>
        <mxCell id="jvQCmLnBRhZeScLjmYUT-26" value="clause-of" style="edgeStyle=orthogonalEdgeStyle;shape=connector;rounded=1;orthogonalLoop=1;jettySize=auto;html=1;labelBackgroundColor=none;strokeColor=default;align=center;verticalAlign=middle;fontFamily=Helvetica;fontSize=11;fontColor=default;endArrow=classic;" parent="1" source="jvQCmLnBRhZeScLjmYUT-17" target="jvQCmLnBRhZeScLjmYUT-23" edge="1">
          <mxGeometry relative="1" as="geometry">
            <mxPoint x="320" y="490" as="sourcePoint" />
            <mxPoint x="320" y="450" as="targetPoint" />
          </mxGeometry>
        </mxCell>
        <mxCell id="jvQCmLnBRhZeScLjmYUT-27" value="given" style="edgeStyle=orthogonalEdgeStyle;shape=connector;rounded=1;orthogonalLoop=1;jettySize=auto;html=1;labelBackgroundColor=none;strokeColor=default;align=center;verticalAlign=middle;fontFamily=Helvetica;fontSize=11;fontColor=default;endArrow=classic;" parent="1" source="jvQCmLnBRhZeScLjmYUT-14" target="jvQCmLnBRhZeScLjmYUT-24" edge="1">
          <mxGeometry x="0.5" y="-10" relative="1" as="geometry">
            <Array as="points">
              <mxPoint x="420" y="340" />
              <mxPoint x="420" y="320" />
            </Array>
            <mxPoint as="offset" />
            <mxPoint x="270" y="-20" as="sourcePoint" />
            <mxPoint x="350" y="-70" as="targetPoint" />
          </mxGeometry>
        </mxCell>
        <mxCell id="9DVTHavd1RBfUQRVlFWA-1" value="evt-after-retrieval: Event" style="rounded=1;whiteSpace=wrap;html=1;labelBackgroundColor=none;fillColor=#2E75B6;fontColor=#FFFFFF;" vertex="1" parent="1">
          <mxGeometry x="440" y="540" width="140" height="40" as="geometry" />
        </mxCell>
        <mxCell id="9DVTHavd1RBfUQRVlFWA-2" value="evt-before-evac: Event" style="rounded=1;whiteSpace=wrap;html=1;labelBackgroundColor=none;fillColor=#2E75B6;fontColor=#FFFFFF;" vertex="1" parent="1">
          <mxGeometry x="440" y="600" width="140" height="40" as="geometry" />
        </mxCell>
      </root>
    </mxGraphModel>
  </diagram>
  <diagram id="Czmpx11kEOldU_jqC02R" name="template-variable">
    <mxGraphModel dx="1434" dy="854" grid="1" gridSize="10" guides="1" tooltips="1" connect="1" arrows="1" fold="1" page="1" pageScale="1" pageWidth="1169" pageHeight="827" math="0" shadow="0">
      <root>
        <mxCell id="0" />
        <mxCell id="1" parent="0" />
        <mxCell id="6wdweHEicqY5qNKsb8Mw-1" value="given" style="edgeStyle=orthogonalEdgeStyle;shape=connector;rounded=1;orthogonalLoop=1;jettySize=auto;html=1;labelBackgroundColor=default;strokeColor=default;align=center;verticalAlign=middle;fontFamily=Helvetica;fontSize=11;fontColor=default;endArrow=classic;" parent="1" source="6wdweHEicqY5qNKsb8Mw-4" target="hrFf3gBbYPtmXdrULgR2-2" edge="1">
          <mxGeometry x="0.6364" y="10" relative="1" as="geometry">
            <Array as="points">
              <mxPoint x="340" y="180" />
              <mxPoint x="340" y="120" />
            </Array>
            <mxPoint as="offset" />
            <mxPoint x="380" y="144" as="targetPoint" />
          </mxGeometry>
        </mxCell>
        <mxCell id="6wdweHEicqY5qNKsb8Mw-2" value="when" style="edgeStyle=orthogonalEdgeStyle;shape=connector;rounded=1;orthogonalLoop=1;jettySize=auto;html=1;labelBackgroundColor=default;strokeColor=default;align=center;verticalAlign=middle;fontFamily=Helvetica;fontSize=11;fontColor=default;endArrow=classic;" parent="1" source="6wdweHEicqY5qNKsb8Mw-4" target="hrFf3gBbYPtmXdrULgR2-3" edge="1">
          <mxGeometry x="0.2" y="10" relative="1" as="geometry">
            <mxPoint as="offset" />
            <mxPoint x="380" y="194" as="targetPoint" />
          </mxGeometry>
        </mxCell>
        <mxCell id="6wdweHEicqY5qNKsb8Mw-3" value="then" style="edgeStyle=orthogonalEdgeStyle;shape=connector;rounded=1;orthogonalLoop=1;jettySize=auto;html=1;labelBackgroundColor=default;strokeColor=default;align=center;verticalAlign=middle;fontFamily=Helvetica;fontSize=11;fontColor=default;endArrow=classic;" parent="1" source="6wdweHEicqY5qNKsb8Mw-4" target="hrFf3gBbYPtmXdrULgR2-1" edge="1">
          <mxGeometry x="0.6364" y="10" relative="1" as="geometry">
            <Array as="points">
              <mxPoint x="340" y="180" />
              <mxPoint x="340" y="240" />
            </Array>
            <mxPoint as="offset" />
            <mxPoint x="380" y="244" as="targetPoint" />
          </mxGeometry>
        </mxCell>
        <mxCell id="6wdweHEicqY5qNKsb8Mw-4" value="scenario-pick: Scenario" style="rounded=1;whiteSpace=wrap;html=1;fillColor=#B85450;fontColor=#FFFFFF;" parent="1" vertex="1">
          <mxGeometry x="200" y="160" width="119" height="40" as="geometry" />
        </mxCell>
        <mxCell id="6wdweHEicqY5qNKsb8Mw-8" value="of-scenario" style="edgeStyle=orthogonalEdgeStyle;shape=connector;rounded=1;orthogonalLoop=1;jettySize=auto;html=1;labelBackgroundColor=default;strokeColor=default;align=center;verticalAlign=middle;fontFamily=Helvetica;fontSize=11;fontColor=default;endArrow=classic;" parent="1" source="6wdweHEicqY5qNKsb8Mw-10" target="6wdweHEicqY5qNKsb8Mw-4" edge="1">
          <mxGeometry relative="1" as="geometry" />
        </mxCell>
        <mxCell id="6wdweHEicqY5qNKsb8Mw-9" value="has-clause" style="edgeStyle=orthogonalEdgeStyle;shape=connector;rounded=1;orthogonalLoop=1;jettySize=auto;html=1;labelBackgroundColor=default;strokeColor=default;align=center;verticalAlign=middle;fontFamily=Helvetica;fontSize=11;fontColor=default;endArrow=classic;" parent="1" source="6wdweHEicqY5qNKsb8Mw-10" target="6wdweHEicqY5qNKsb8Mw-14" edge="1">
          <mxGeometry relative="1" as="geometry">
            <Array as="points">
              <mxPoint x="260" y="380" />
              <mxPoint x="430" y="380" />
            </Array>
          </mxGeometry>
        </mxCell>
        <mxCell id="6wdweHEicqY5qNKsb8Mw-10" value="pick-tmpl: ScenarioTemplate" style="rounded=1;whiteSpace=wrap;html=1;fillColor=#B85450;fontColor=#FFFFFF;" parent="1" vertex="1">
          <mxGeometry x="200" y="300" width="119" height="40" as="geometry" />
        </mxCell>
        <mxCell id="6wdweHEicqY5qNKsb8Mw-11" value="ref-agent" style="edgeStyle=orthogonalEdgeStyle;rounded=1;orthogonalLoop=1;jettySize=auto;html=1;" parent="1" source="6wdweHEicqY5qNKsb8Mw-14" target="6wdweHEicqY5qNKsb8Mw-18" edge="1">
          <mxGeometry x="0.6667" relative="1" as="geometry">
            <mxPoint as="offset" />
            <mxPoint x="480" y="304" as="targetPoint" />
          </mxGeometry>
        </mxCell>
        <mxCell id="6wdweHEicqY5qNKsb8Mw-12" value="clause-of" style="edgeStyle=orthogonalEdgeStyle;rounded=1;orthogonalLoop=1;jettySize=auto;html=1;" parent="1" source="6wdweHEicqY5qNKsb8Mw-14" target="hrFf3gBbYPtmXdrULgR2-1" edge="1">
          <mxGeometry relative="1" as="geometry">
            <mxPoint x="480" y="244" as="targetPoint" />
          </mxGeometry>
        </mxCell>
        <mxCell id="6wdweHEicqY5qNKsb8Mw-14" value="clause-obj-held-retrieve: FluentClause" style="rounded=1;whiteSpace=wrap;html=1;fillColor=#C55A11;fontColor=#FFFFFF;" parent="1" vertex="1">
          <mxGeometry x="360" y="300" width="139" height="40" as="geometry" />
        </mxCell>
        <mxCell id="6wdweHEicqY5qNKsb8Mw-17" value="ref-object" style="edgeStyle=orthogonalEdgeStyle;rounded=1;orthogonalLoop=1;jettySize=auto;html=1;" parent="1" source="6wdweHEicqY5qNKsb8Mw-14" target="6wdweHEicqY5qNKsb8Mw-19" edge="1">
          <mxGeometry x="0.6667" relative="1" as="geometry">
            <mxPoint as="offset" />
            <mxPoint x="480" y="364" as="targetPoint" />
          </mxGeometry>
        </mxCell>
        <mxCell id="6wdweHEicqY5qNKsb8Mw-18" value="robot: ScenarioVariable" style="rounded=1;whiteSpace=wrap;html=1;fillColor=#CE9AFC;fontColor=#FFFFFF;" parent="1" vertex="1">
          <mxGeometry x="520" y="240" width="119" height="40" as="geometry" />
        </mxCell>
        <mxCell id="6wdweHEicqY5qNKsb8Mw-19" value="target-obj: ScenarioVariable" style="rounded=1;whiteSpace=wrap;html=1;fillColor=#CE9AFC;fontColor=#FFFFFF;" parent="1" vertex="1">
          <mxGeometry x="520" y="360" width="119" height="40" as="geometry" />
        </mxCell>
        <mxCell id="hrFf3gBbYPtmXdrULgR2-1" value="pick-then: ThenClause" style="rounded=1;whiteSpace=wrap;html=1;fillColor=#B85450;fontColor=#FFFFFF;" parent="1" vertex="1">
          <mxGeometry x="380" y="220" width="99" height="40" as="geometry" />
        </mxCell>
        <mxCell id="hrFf3gBbYPtmXdrULgR2-2" value="pick-given: GivenClause" style="rounded=1;whiteSpace=wrap;html=1;fillColor=#B85450;fontColor=#FFFFFF;" parent="1" vertex="1">
          <mxGeometry x="380" y="100" width="99" height="40" as="geometry" />
        </mxCell>
        <mxCell id="hrFf3gBbYPtmXdrULgR2-3" value="pick-when: WhenClause" style="rounded=1;whiteSpace=wrap;html=1;fillColor=#B85450;fontColor=#FFFFFF;" parent="1" vertex="1">
          <mxGeometry x="380" y="160" width="99" height="40" as="geometry" />
        </mxCell>
        <mxCell id="QPM5QYjZWs1D5yeofLT0-1" style="edgeStyle=orthogonalEdgeStyle;shape=connector;rounded=1;orthogonalLoop=1;jettySize=auto;html=1;labelBackgroundColor=default;strokeColor=default;align=center;verticalAlign=middle;fontFamily=Helvetica;fontSize=11;fontColor=default;endArrow=classic;" parent="1" source="iQSJltLTpahty5pUiRL_-1" target="6wdweHEicqY5qNKsb8Mw-19" edge="1">
          <mxGeometry relative="1" as="geometry">
            <Array as="points">
              <mxPoint x="670" y="180" />
              <mxPoint x="670" y="380" />
            </Array>
          </mxGeometry>
        </mxCell>
        <mxCell id="iQSJltLTpahty5pUiRL_-1" value="clause-obj-held-evac: FluentClause" style="rounded=1;whiteSpace=wrap;html=1;fillColor=#C55A11;fontColor=#FFFFFF;" parent="1" vertex="1">
          <mxGeometry x="510" y="160" width="139" height="40" as="geometry" />
        </mxCell>
        <mxCell id="iQSJltLTpahty5pUiRL_-3" value="ref-agent" style="edgeStyle=orthogonalEdgeStyle;rounded=1;orthogonalLoop=1;jettySize=auto;html=1;" parent="1" source="iQSJltLTpahty5pUiRL_-1" target="6wdweHEicqY5qNKsb8Mw-18" edge="1">
          <mxGeometry relative="1" as="geometry">
            <mxPoint as="offset" />
            <mxPoint x="590" y="290" as="targetPoint" />
            <mxPoint x="510" y="330" as="sourcePoint" />
          </mxGeometry>
        </mxCell>
      </root>
    </mxGraphModel>
  </diagram>
  <diagram id="4UdVjNMm2gTS2Utrj_Y2" name="scene-n-variant">
    <mxGraphModel dx="775" dy="462" grid="1" gridSize="10" guides="1" tooltips="1" connect="1" arrows="1" fold="1" page="1" pageScale="1" pageWidth="1169" pageHeight="827" math="0" shadow="0">
      <root>
        <mxCell id="0" />
        <mxCell id="1" parent="0" />
        <mxCell id="WbwNVkWY8g4KYevu7iRS-22" value="scenario-pick: Scenario" style="rounded=1;whiteSpace=wrap;html=1;fillColor=#B85450;fontColor=#FFFFFF;" parent="1" vertex="1">
          <mxGeometry x="240" y="40" width="120" height="40" as="geometry" />
        </mxCell>
        <mxCell id="WbwNVkWY8g4KYevu7iRS-23" value="of-scenario" style="edgeStyle=orthogonalEdgeStyle;shape=connector;rounded=1;orthogonalLoop=1;jettySize=auto;html=1;labelBackgroundColor=default;strokeColor=default;align=center;verticalAlign=middle;fontFamily=Helvetica;fontSize=11;fontColor=default;endArrow=classic;" parent="1" source="WbwNVkWY8g4KYevu7iRS-24" target="WbwNVkWY8g4KYevu7iRS-22" edge="1">
          <mxGeometry relative="1" as="geometry">
            <mxPoint as="offset" />
          </mxGeometry>
        </mxCell>
        <mxCell id="WbwNVkWY8g4KYevu7iRS-24" value="pick-tmpl: ScenarioTemplate" style="rounded=1;whiteSpace=wrap;html=1;fillColor=#B85450;fontColor=#FFFFFF;" parent="1" vertex="1">
          <mxGeometry x="240" y="120" width="120" height="40" as="geometry" />
        </mxCell>
        <mxCell id="WbwNVkWY8g4KYevu7iRS-26" value="has-criteria" style="edgeStyle=orthogonalEdgeStyle;rounded=1;orthogonalLoop=1;jettySize=auto;html=1;labelBackgroundColor=default;" parent="1" source="WbwNVkWY8g4KYevu7iRS-27" target="WbwNVkWY8g4KYevu7iRS-34" edge="1">
          <mxGeometry relative="1" as="geometry">
            <mxPoint as="offset" />
          </mxGeometry>
        </mxCell>
        <mxCell id="WbwNVkWY8g4KYevu7iRS-27" value="us-single-arm: UserStory" style="rounded=1;whiteSpace=wrap;html=1;fillColor=#B85450;fontColor=#FFFFFF;" parent="1" vertex="1">
          <mxGeometry x="40" y="40" width="120" height="40" as="geometry" />
        </mxCell>
        <mxCell id="WbwNVkWY8g4KYevu7iRS-28" value="rows" style="edgeStyle=orthogonalEdgeStyle;rounded=1;orthogonalLoop=1;jettySize=auto;html=1;labelBackgroundColor=default;" parent="1" source="WbwNVkWY8g4KYevu7iRS-30" target="WbwNVkWY8g4KYevu7iRS-31" edge="1">
          <mxGeometry relative="1" as="geometry">
            <mxPoint as="offset" />
          </mxGeometry>
        </mxCell>
        <mxCell id="WbwNVkWY8g4KYevu7iRS-29" value="variable-list" style="edgeStyle=orthogonalEdgeStyle;shape=connector;rounded=1;orthogonalLoop=1;jettySize=auto;html=1;labelBackgroundColor=default;strokeColor=default;align=center;verticalAlign=middle;fontFamily=Helvetica;fontSize=11;fontColor=default;endArrow=classic;jumpStyle=arc;" parent="1" source="WbwNVkWY8g4KYevu7iRS-30" target="Vwx8kiV4e0YVT70726lp-1" edge="1">
          <mxGeometry y="10" relative="1" as="geometry">
            <mxPoint as="offset" />
            <mxPoint x="240" y="229.99999999999977" as="targetPoint" />
          </mxGeometry>
        </mxCell>
        <mxCell id="WbwNVkWY8g4KYevu7iRS-30" value="battery-variation: TaskVariation,&lt;br&gt;TableVariation" style="rounded=1;whiteSpace=wrap;html=1;fillColor=#fff2cc;strokeColor=#E8AE00;" parent="1" vertex="1">
          <mxGeometry x="40" y="200" width="120" height="60" as="geometry" />
        </mxCell>
        <mxCell id="WbwNVkWY8g4KYevu7iRS-31" value="cyl-tray:&lt;br&gt;Object, BatteryTray" style="rounded=1;whiteSpace=wrap;html=1;fillColor=#d5e8d4;strokeColor=#82b366;" parent="1" vertex="1">
          <mxGeometry x="40" y="300" width="120" height="40" as="geometry" />
        </mxCell>
        <mxCell id="WbwNVkWY8g4KYevu7iRS-32" value="has-variation" style="edgeStyle=orthogonalEdgeStyle;rounded=1;orthogonalLoop=1;jettySize=auto;html=1;labelBackgroundColor=default;" parent="1" source="WbwNVkWY8g4KYevu7iRS-34" target="WbwNVkWY8g4KYevu7iRS-30" edge="1">
          <mxGeometry relative="1" as="geometry">
            <Array as="points">
              <mxPoint x="97.5" y="220" />
              <mxPoint x="97.5" y="220" />
            </Array>
          </mxGeometry>
        </mxCell>
        <mxCell id="WbwNVkWY8g4KYevu7iRS-33" value="of-template" style="edgeStyle=orthogonalEdgeStyle;rounded=0;orthogonalLoop=1;jettySize=auto;html=1;" parent="1" source="WbwNVkWY8g4KYevu7iRS-34" target="WbwNVkWY8g4KYevu7iRS-24" edge="1">
          <mxGeometry y="20" relative="1" as="geometry">
            <mxPoint as="offset" />
          </mxGeometry>
        </mxCell>
        <mxCell id="WbwNVkWY8g4KYevu7iRS-34" value="avl-retrieve: ScenarioVariant" style="rounded=1;whiteSpace=wrap;html=1;fillColor=#B85450;fontColor=#FFFFFF;" parent="1" vertex="1">
          <mxGeometry x="40" y="120" width="120" height="40" as="geometry" />
        </mxCell>
        <mxCell id="qOcO0DQtf45V6wukuOvs-7" value="rows" style="edgeStyle=orthogonalEdgeStyle;rounded=1;orthogonalLoop=1;jettySize=auto;html=1;labelBackgroundColor=default;" parent="1" source="qOcO0DQtf45V6wukuOvs-9" target="qOcO0DQtf45V6wukuOvs-10" edge="1">
          <mxGeometry relative="1" as="geometry">
            <mxPoint as="offset" />
          </mxGeometry>
        </mxCell>
        <mxCell id="qOcO0DQtf45V6wukuOvs-9" value="battery-variation: TaskVariation, TableVariation" style="rounded=1;whiteSpace=wrap;html=1;fillColor=#fff2cc;strokeColor=#E8AE00;" parent="1" vertex="1">
          <mxGeometry x="440" y="120" width="120" height="60" as="geometry" />
        </mxCell>
        <mxCell id="qOcO0DQtf45V6wukuOvs-10" value="cyl-tray:&lt;br&gt;Object, BatteryTray" style="rounded=1;whiteSpace=wrap;html=1;fillColor=#d5e8d4;strokeColor=#82b366;" parent="1" vertex="1">
          <mxGeometry x="440" y="220" width="120" height="40" as="geometry" />
        </mxCell>
        <mxCell id="qOcO0DQtf45V6wukuOvs-11" value="has-obj" style="edgeStyle=orthogonalEdgeStyle;shape=connector;rounded=1;orthogonalLoop=1;jettySize=auto;html=1;labelBackgroundColor=default;strokeColor=default;align=center;verticalAlign=middle;fontFamily=Helvetica;fontSize=11;fontColor=default;endArrow=classic;" parent="1" source="qOcO0DQtf45V6wukuOvs-14" target="qOcO0DQtf45V6wukuOvs-10" edge="1">
          <mxGeometry y="-10" relative="1" as="geometry">
            <mxPoint as="offset" />
          </mxGeometry>
        </mxCell>
        <mxCell id="qOcO0DQtf45V6wukuOvs-12" value="of-scene" style="edgeStyle=orthogonalEdgeStyle;shape=connector;rounded=1;orthogonalLoop=1;jettySize=auto;html=1;labelBackgroundColor=default;strokeColor=default;align=center;verticalAlign=middle;fontFamily=Helvetica;fontSize=11;fontColor=default;endArrow=classic;" parent="1" source="qOcO0DQtf45V6wukuOvs-14" target="qOcO0DQtf45V6wukuOvs-15" edge="1">
          <mxGeometry relative="1" as="geometry" />
        </mxCell>
        <mxCell id="qOcO0DQtf45V6wukuOvs-13" value="has-obj" style="edgeStyle=orthogonalEdgeStyle;shape=connector;rounded=1;orthogonalLoop=1;jettySize=auto;html=1;labelBackgroundColor=default;strokeColor=default;align=center;verticalAlign=middle;fontFamily=Helvetica;fontSize=11;fontColor=default;endArrow=classic;" parent="1" source="qOcO0DQtf45V6wukuOvs-14" target="qOcO0DQtf45V6wukuOvs-16" edge="1">
          <mxGeometry x="0.6251" y="10" relative="1" as="geometry">
            <mxPoint as="offset" />
            <Array as="points">
              <mxPoint x="680" y="300" />
            </Array>
          </mxGeometry>
        </mxCell>
        <mxCell id="qOcO0DQtf45V6wukuOvs-14" value="scn-has-obj-avl: SceneHasObjects" style="rounded=1;whiteSpace=wrap;html=1;fillColor=#76608a;fontColor=#ffffff;strokeColor=#432D57;" parent="1" vertex="1">
          <mxGeometry x="620" y="220" width="120" height="40" as="geometry" />
        </mxCell>
        <mxCell id="qOcO0DQtf45V6wukuOvs-15" value="scn-pick: Scene" style="rounded=1;whiteSpace=wrap;html=1;fillColor=#76608a;fontColor=#ffffff;strokeColor=#432D57;" parent="1" vertex="1">
          <mxGeometry x="620" y="130" width="120" height="40" as="geometry" />
        </mxCell>
        <mxCell id="qOcO0DQtf45V6wukuOvs-16" value="tool-box:&lt;br&gt;Object" style="rounded=1;whiteSpace=wrap;html=1;fillColor=#d5e8d4;strokeColor=#82b366;" parent="1" vertex="1">
          <mxGeometry x="440" y="280" width="120" height="40" as="geometry" />
        </mxCell>
        <mxCell id="qOcO0DQtf45V6wukuOvs-17" value="pick-tmpl: ScenarioTemplate" style="rounded=1;whiteSpace=wrap;html=1;fillColor=#B85450;fontColor=#FFFFFF;" parent="1" vertex="1">
          <mxGeometry x="620" y="40" width="120" height="40" as="geometry" />
        </mxCell>
        <mxCell id="qOcO0DQtf45V6wukuOvs-18" value="has-scene" style="edgeStyle=orthogonalEdgeStyle;shape=connector;rounded=1;orthogonalLoop=1;jettySize=auto;html=1;labelBackgroundColor=default;strokeColor=default;align=center;verticalAlign=middle;fontFamily=Helvetica;fontSize=11;fontColor=default;endArrow=classic;" parent="1" source="qOcO0DQtf45V6wukuOvs-17" target="qOcO0DQtf45V6wukuOvs-15" edge="1">
          <mxGeometry relative="1" as="geometry">
            <mxPoint x="780" y="-30" as="targetPoint" />
          </mxGeometry>
        </mxCell>
        <mxCell id="qOcO0DQtf45V6wukuOvs-20" value="of-template" style="edgeStyle=orthogonalEdgeStyle;rounded=0;orthogonalLoop=1;jettySize=auto;html=1;" parent="1" source="qOcO0DQtf45V6wukuOvs-22" target="qOcO0DQtf45V6wukuOvs-17" edge="1">
          <mxGeometry y="20" relative="1" as="geometry">
            <mxPoint as="offset" />
            <mxPoint x="620" y="60" as="targetPoint" />
          </mxGeometry>
        </mxCell>
        <mxCell id="qOcO0DQtf45V6wukuOvs-21" value="has-in-scene" style="edgeStyle=orthogonalEdgeStyle;shape=connector;rounded=1;orthogonalLoop=1;jettySize=auto;html=1;labelBackgroundColor=default;strokeColor=default;align=center;verticalAlign=middle;fontFamily=Helvetica;fontSize=11;fontColor=default;endArrow=classic;" parent="1" source="qOcO0DQtf45V6wukuOvs-22" target="qOcO0DQtf45V6wukuOvs-14" edge="1">
          <mxGeometry x="-0.2309" y="10" relative="1" as="geometry">
            <Array as="points">
              <mxPoint x="500" y="20" />
              <mxPoint x="760" y="20" />
              <mxPoint x="760" y="240" />
            </Array>
            <mxPoint as="offset" />
            <mxPoint x="680" y="240" as="targetPoint" />
          </mxGeometry>
        </mxCell>
        <mxCell id="qOcO0DQtf45V6wukuOvs-22" value="pickplace-hbrs: ScenarioVariant" style="rounded=1;whiteSpace=wrap;html=1;fillColor=#B85450;fontColor=#FFFFFF;" parent="1" vertex="1">
          <mxGeometry x="440" y="40" width="120" height="40" as="geometry" />
        </mxCell>
        <mxCell id="qOcO0DQtf45V6wukuOvs-23" value="has-variation" style="edgeStyle=orthogonalEdgeStyle;rounded=1;orthogonalLoop=1;jettySize=auto;html=1;labelBackgroundColor=default;" parent="1" source="qOcO0DQtf45V6wukuOvs-22" target="qOcO0DQtf45V6wukuOvs-9" edge="1">
          <mxGeometry relative="1" as="geometry">
            <mxPoint x="190" y="-270" as="sourcePoint" />
            <mxPoint x="190" y="-230" as="targetPoint" />
          </mxGeometry>
        </mxCell>
        <mxCell id="Vwx8kiV4e0YVT70726lp-1" value="target-obj: ScenarioVariable" style="rounded=1;whiteSpace=wrap;html=1;fillColor=#CE9AFC;fontColor=#FFFFFF;" vertex="1" parent="1">
          <mxGeometry x="241" y="210" width="119" height="40" as="geometry" />
        </mxCell>
        <mxCell id="jYbriyZxb1zlmFvVm1El-1" value="cyl-tray:&lt;br&gt;Object, BatteryTray" style="rounded=1;whiteSpace=wrap;html=1;fillColor=#d5e8d4;strokeColor=#82b366;" vertex="1" parent="1">
          <mxGeometry x="220" y="440" width="120" height="40" as="geometry" />
        </mxCell>
        <mxCell id="jYbriyZxb1zlmFvVm1El-3" value="of-object" style="edgeStyle=orthogonalEdgeStyle;shape=connector;rounded=1;orthogonalLoop=1;jettySize=auto;html=1;strokeColor=default;align=center;verticalAlign=middle;fontFamily=Helvetica;fontSize=11;fontColor=default;labelBackgroundColor=none;endArrow=classic;" edge="1" parent="1" source="jYbriyZxb1zlmFvVm1El-2" target="jYbriyZxb1zlmFvVm1El-1">
          <mxGeometry y="10" relative="1" as="geometry">
            <mxPoint as="offset" />
          </mxGeometry>
        </mxCell>
        <mxCell id="jYbriyZxb1zlmFvVm1El-5" value="has-model" style="edgeStyle=orthogonalEdgeStyle;shape=connector;rounded=1;orthogonalLoop=1;jettySize=auto;html=1;strokeColor=default;align=center;verticalAlign=middle;fontFamily=Helvetica;fontSize=11;fontColor=default;labelBackgroundColor=none;endArrow=classic;" edge="1" parent="1" source="jYbriyZxb1zlmFvVm1El-2" target="jYbriyZxb1zlmFvVm1El-4">
          <mxGeometry relative="1" as="geometry">
            <Array as="points">
              <mxPoint x="30" y="460" />
              <mxPoint x="30" y="520" />
            </Array>
          </mxGeometry>
        </mxCell>
        <mxCell id="jYbriyZxb1zlmFvVm1El-7" style="edgeStyle=orthogonalEdgeStyle;shape=connector;rounded=1;orthogonalLoop=1;jettySize=auto;html=1;strokeColor=default;align=center;verticalAlign=middle;fontFamily=Helvetica;fontSize=11;fontColor=default;labelBackgroundColor=none;endArrow=classic;" edge="1" parent="1" source="jYbriyZxb1zlmFvVm1El-2" target="jYbriyZxb1zlmFvVm1El-6">
          <mxGeometry relative="1" as="geometry">
            <Array as="points">
              <mxPoint x="30" y="460" />
              <mxPoint x="30" y="580" />
            </Array>
          </mxGeometry>
        </mxCell>
        <mxCell id="jYbriyZxb1zlmFvVm1El-2" value="modelled-tray:&lt;br&gt;ModelledObject" style="rounded=1;whiteSpace=wrap;html=1;fillColor=#f5f5f5;strokeColor=#666666;fontColor=#333333;" vertex="1" parent="1">
          <mxGeometry x="50" y="440" width="120" height="40" as="geometry" />
        </mxCell>
        <mxCell id="jYbriyZxb1zlmFvVm1El-9" value="simplices" style="edgeStyle=orthogonalEdgeStyle;shape=connector;rounded=1;orthogonalLoop=1;jettySize=auto;html=1;strokeColor=default;align=center;verticalAlign=middle;fontFamily=Helvetica;fontSize=11;fontColor=default;labelBackgroundColor=none;endArrow=classic;" edge="1" parent="1" source="jYbriyZxb1zlmFvVm1El-4" target="jYbriyZxb1zlmFvVm1El-8">
          <mxGeometry y="10" relative="1" as="geometry">
            <mxPoint as="offset" />
          </mxGeometry>
        </mxCell>
        <mxCell id="jYbriyZxb1zlmFvVm1El-4" value="tray-rigid-body:&lt;br&gt;ObjectModel, RigidBody" style="rounded=1;whiteSpace=wrap;html=1;fillColor=#f5f5f5;strokeColor=#666666;fontColor=#333333;" vertex="1" parent="1">
          <mxGeometry x="50" y="500" width="139" height="40" as="geometry" />
        </mxCell>
        <mxCell id="jYbriyZxb1zlmFvVm1El-11" value="path" style="edgeStyle=orthogonalEdgeStyle;shape=connector;rounded=1;orthogonalLoop=1;jettySize=auto;html=1;strokeColor=default;align=center;verticalAlign=middle;fontFamily=Helvetica;fontSize=11;fontColor=default;labelBackgroundColor=none;endArrow=classic;" edge="1" parent="1" source="jYbriyZxb1zlmFvVm1El-6" target="jYbriyZxb1zlmFvVm1El-10">
          <mxGeometry x="-0.1268" y="10" relative="1" as="geometry">
            <mxPoint as="offset" />
          </mxGeometry>
        </mxCell>
        <mxCell id="jYbriyZxb1zlmFvVm1El-6" value="tray-usd:&lt;br&gt;ObjectModel, UsdFile" style="rounded=1;whiteSpace=wrap;html=1;fillColor=#f5f5f5;strokeColor=#666666;fontColor=#333333;" vertex="1" parent="1">
          <mxGeometry x="50" y="560" width="139" height="40" as="geometry" />
        </mxCell>
        <mxCell id="jYbriyZxb1zlmFvVm1El-8" value="tray-frame:&lt;br&gt;Frame" style="rounded=1;whiteSpace=wrap;html=1;fillColor=#f5f5f5;strokeColor=#666666;fontColor=#333333;" vertex="1" parent="1">
          <mxGeometry x="260" y="500" width="80" height="40" as="geometry" />
        </mxCell>
        <mxCell id="jYbriyZxb1zlmFvVm1El-10" value="xsd:string" style="rounded=1;whiteSpace=wrap;html=1;fillColor=#f5f5f5;strokeColor=#666666;fontColor=#333333;" vertex="1" parent="1">
          <mxGeometry x="260" y="560" width="80" height="40" as="geometry" />
        </mxCell>
      </root>
    </mxGraphModel>
  </diagram>
</mxfile>
